<svg width="24" height="24" viewBox="0 0 24 24" fill="currentColor"
    xmlns="http://www.w3.org/2000/svg">
    <path opacity="0.4"
        d="M12 22C17.5228 22 22 17.5228 22 12C22 6.47715 17.5228 2 12 2C6.47715 2 2 6.47715 2 12C2 17.5228 6.47715 22 12 22Z"
        fill="currentColor" />
    <path
        d="M15.4999 11.25H10.3099L12.0299 9.53C12.3199 9.24 12.3199 8.76 12.0299 8.47C11.7399 8.18 11.2599 8.18 10.9699 8.47L7.96994 11.47C7.67994 11.76 7.67994 12.24 7.96994 12.53L10.9699 15.53C11.1199 15.68 11.3099 15.75 11.4999 15.75C11.6899 15.75 11.8799 15.68 12.0299 15.53C12.3199 15.24 12.3199 14.76 12.0299 14.47L10.3099 12.75H15.4999C15.9099 12.75 16.2499 12.41 16.2499 12C16.2499 11.59 15.9099 11.25 15.4999 11.25Z"
        fill="currentColor" />
</svg>