<svg width="25" height="24" viewBox="0 0 25 24" fill="currentColor"
    xmlns="http://www.w3.org/2000/svg">
    <path opacity="0.4"
        d="M12.5 22C18.0228 22 22.5 17.5228 22.5 12C22.5 6.47715 18.0228 2 12.5 2C6.97715 2 2.5 6.47715 2.5 12C2.5 17.5228 6.97715 22 12.5 22Z"
        fill="currentColor" />
    <path
        d="M16.0004 11.2495H10.8104L12.5304 9.52945C12.8204 9.23945 12.8204 8.75945 12.5304 8.46945C12.2404 8.17945 11.7604 8.17945 11.4704 8.46945L8.47043 11.4695C8.18043 11.7595 8.18043 12.2395 8.47043 12.5295L11.4704 15.5295C11.6204 15.6795 11.8104 15.7495 12.0004 15.7495C12.1904 15.7495 12.3804 15.6795 12.5304 15.5295C12.8204 15.2395 12.8204 14.7595 12.5304 14.4695L10.8104 12.7495H16.0004C16.4104 12.7495 16.7504 12.4095 16.7504 11.9995C16.7504 11.5895 16.4104 11.2495 16.0004 11.2495Z"
        fill="currentColor" />
</svg>