<svg width="55" height="55" viewBox="0 0 55 55" fill="currentColor"
    xmlns="http://www.w3.org/2000/svg">
    <g clip-path="url(#clip0_2969_1770)">
        <path fill-rule="evenodd" clip-rule="evenodd"
            d="M24.8036 28.8072C23.8501 28.3407 23.1594 27.8077 22.6544 27.3639C17.8415 23.1007 19.4124 17.1473 22.4578 12.4188C23.2731 11.1514 24.9514 9.4842 26.723 8.81349C27.9676 8.34169 29.2554 8.3514 30.3505 9.25335C31.548 10.2321 32.0207 11.9239 32.0448 13.7957C32.0818 16.503 31.1916 19.5861 30.4098 21.2646C29.5075 23.2004 27.7936 26.0358 25.7633 28.5791C26.8314 29.0013 28.1793 29.3263 29.8896 29.3877C30.6496 29.4178 31.5195 29.2543 32.4123 28.9567C32.0795 27.563 32.0074 26.0412 32.2406 24.4434C32.4385 23.1006 33.3831 20.3597 34.7711 18.5746C35.7629 17.3012 36.9839 16.5228 38.3058 16.8936C39.9468 17.3564 40.559 18.5761 40.5827 20.0162C40.6172 22.0439 39.4375 24.5196 38.491 25.6936C37.3892 27.0589 35.2575 28.5031 33.1343 29.323C34.5068 33.9731 38.9961 36.9718 44.3974 36.1007C44.5584 36.0765 44.7122 36.1878 44.7415 36.3488C44.7666 36.5133 44.6532 36.6689 44.4922 36.6931C38.7772 37.6136 34.0202 34.4472 32.5621 29.5284C31.6111 29.8429 30.6793 30.0189 29.8671 29.9875C27.9832 29.9185 26.5144 29.5459 25.3678 29.0662C24.9794 29.5361 24.5801 29.9935 24.1718 30.4319C22.339 32.4016 20.3561 33.9428 18.5453 34.3649C14.3609 35.3408 10.9919 33.045 9.03446 29.6597C7.09698 26.306 6.55411 21.8938 7.95352 18.6249C8.01886 18.4726 8.19692 18.4007 8.34815 18.4667C8.49942 18.5327 8.57069 18.7087 8.50531 18.861C7.17348 21.9717 7.7074 26.1704 9.5539 29.359C11.3805 32.516 14.5068 34.6901 18.4076 33.7817C20.1314 33.3768 21.9906 31.8947 23.7329 30.0228C24.0958 29.633 24.452 29.2271 24.8036 28.8072ZM32.9842 28.7509C32.6826 27.4442 32.6168 26.0229 32.8369 24.5282C33.025 23.25 33.9196 20.6457 35.2464 18.9415C36.0687 17.8852 37.0466 17.1622 38.1418 17.4723C39.4816 17.847 39.9622 18.8545 39.9818 20.0276C40.0186 21.9142 38.906 24.2227 38.0228 25.318C36.9885 26.6012 34.9822 27.9714 32.9842 28.7509ZM25.1938 28.3308C24.2369 27.8773 23.551 27.35 23.0529 26.9142C18.4888 22.8728 20.076 17.2259 22.9623 12.7436C23.7211 11.5628 25.2805 10.0024 26.9359 9.3742C27.9732 8.98251 29.0547 8.96366 29.971 9.71675C31.0444 10.5934 31.4237 12.1258 31.4467 13.8019C31.4825 16.4146 30.6185 19.393 29.8653 21.0118C28.9631 22.9476 27.2381 25.7954 25.1938 28.3308Z"
            fill="currentColor" />
        <path fill-rule="evenodd" clip-rule="evenodd"
            d="M44.1684 36.4122C43.8987 36.2675 43.1239 35.8482 43.0085 35.7816C42.6865 35.5931 42.5517 35.4531 42.4307 35.2954C42.3352 35.1674 42.2535 35.0216 42.0455 34.805C41.9293 34.6867 41.938 34.4939 42.0581 34.3798C42.1781 34.2657 42.366 34.2729 42.4822 34.3911C42.6677 34.59 42.7676 34.7317 42.8535 34.857C42.9546 34.9999 43.0388 35.1064 43.3119 35.2635C43.444 35.3411 44.2263 35.693 44.5489 35.9245C44.7177 36.0448 44.7953 36.1773 44.8091 36.2526C44.8291 36.3605 44.8121 36.4929 44.7349 36.6399C44.6351 36.8283 44.4137 37.0782 44.172 37.3637C43.9442 37.6314 43.6926 37.9392 43.529 38.2732C43.3932 38.555 43.3229 38.8539 43.4271 39.1612C43.4814 39.3174 43.4014 39.4865 43.2448 39.5411C43.0882 39.5957 42.9158 39.5135 42.8615 39.3573C42.6985 38.897 42.7835 38.4378 42.9906 38.0105C43.1744 37.6323 43.4539 37.2809 43.7146 36.9753C43.8696 36.7919 44.0178 36.626 44.1219 36.4849C44.1389 36.4624 44.1537 36.4373 44.1684 36.4122Z"
            fill="currentColor" />
    </g>
    <defs>
        <clipPath id="clip0_2969_1770">
            <rect width="39" height="39" fill="white"
                transform="matrix(-0.758368 0.651827 0.651827 0.758368 29.5762 0)" />
        </clipPath>
    </defs>
</svg>