<svg width="47" height="47" viewBox="0 0 47 47" fill="currentColor"
    xmlns="http://www.w3.org/2000/svg">
    <g clip-path="url(#clip0_2969_1775)">
        <path fill-rule="evenodd" clip-rule="evenodd"
            d="M5.59544 30.8666C7.52703 27.2822 10.8286 24.7502 14.6772 23.0567C20.4894 20.4994 27.55 19.8529 33.0899 20.4153C36.5717 20.7684 38.8092 22.1712 42.1167 23.2621C42.2507 23.3062 42.3951 23.2335 42.4392 23.0995C42.4835 22.9661 42.4106 22.8211 42.2767 22.7776C38.9305 21.674 36.6637 20.2648 33.1412 19.9073C27.5241 19.3371 20.3654 19.9966 14.4716 22.5895C10.5168 24.3296 7.13119 26.9407 5.14603 30.6244C5.0791 30.7484 5.1251 30.903 5.24919 30.97C5.37328 31.0369 5.52851 30.9907 5.59544 30.8666Z"
            fill="currentColor" />
        <path fill-rule="evenodd" clip-rule="evenodd"
            d="M43.0393 22.8801C43.0277 22.8755 42.9495 22.8468 42.8867 22.8158C42.6257 22.689 42.1891 22.4251 41.658 22.0597C39.878 20.8318 37.0429 18.4614 36.2725 16.142C36.2281 16.0082 36.0836 15.9361 35.9498 15.9805C35.816 16.025 35.7431 16.169 35.7876 16.3028C36.5891 18.7161 39.5162 21.2027 41.3685 22.4798C41.6167 22.6507 41.8456 22.8009 42.0474 22.9258C41.3228 22.9468 40.5991 22.9491 39.8736 22.9433C37.7849 22.9256 35.9743 23.343 34.0614 24.2202C33.9335 24.2785 33.8771 24.4305 33.936 24.5583C33.9943 24.6862 34.1463 24.7427 34.2741 24.6837C36.1154 23.8398 37.8586 23.4368 39.869 23.4535C40.8172 23.461 41.7634 23.4544 42.7106 23.4125C42.8048 23.4083 43.0497 23.3948 43.0837 23.3875C43.2778 23.3462 43.2888 23.1783 43.2894 23.1411C43.2898 23.1231 43.2821 22.9001 43.0393 22.8801ZM42.9791 23.3868C42.9858 23.3873 42.9926 23.3883 43 23.3886C42.994 23.3886 42.9872 23.3876 42.9791 23.3868Z"
            fill="currentColor" />
    </g>
    <defs>
        <clipPath id="clip0_2969_1775">
            <rect width="39" height="39" fill="white"
                transform="translate(8.86719 46.8438) rotate(-103.141)" />
        </clipPath>
    </defs>
</svg>