<svg width="30" height="30" viewBox="0 0 30 30" fill="none" xmlns="http://www.w3.org/2000/svg">
<path d="M2.5 27.3125H27.5C27.5452 27.3125 27.5924 27.3307 27.6309 27.3691C27.6693 27.4076 27.6875 27.4548 27.6875 27.5C27.6875 27.5452 27.6693 27.5924 27.6309 27.6309C27.5924 27.6693 27.5452 27.6875 27.5 27.6875H2.5C2.45478 27.6875 2.40761 27.6693 2.36914 27.6309C2.33067 27.5924 2.3125 27.5452 2.3125 27.5C2.3125 27.4548 2.33067 27.4076 2.36914 27.3691C2.40761 27.3307 2.45478 27.3125 2.5 27.3125Z" fill="#F9B233" stroke="#F9B233" stroke-width="1.5"/>
<path opacity="0.4" d="M8.75 3.25H21.25C22.9715 3.25 23.9874 3.75761 24.5889 4.4541C25.2081 5.17116 25.5 6.21664 25.5 7.5V26.75H4.5V7.5C4.5 6.21664 4.79194 5.17116 5.41113 4.4541C6.0126 3.75761 7.02854 3.25 8.75 3.25Z" fill="#F9B233" stroke="#F9B233" stroke-width="1.5"/>
<path d="M8.75 20.4375H12.5C12.5452 20.4375 12.5924 20.4557 12.6309 20.4941C12.6693 20.5326 12.6875 20.5798 12.6875 20.625C12.6875 20.6702 12.6693 20.7174 12.6309 20.7559C12.5924 20.7943 12.5452 20.8125 12.5 20.8125H8.75C8.70478 20.8125 8.65761 20.7943 8.61914 20.7559C8.58067 20.7174 8.5625 20.6702 8.5625 20.625C8.5625 20.5798 8.58067 20.5326 8.61914 20.4941C8.65761 20.4557 8.70478 20.4375 8.75 20.4375Z" fill="#F9B233" stroke="#F9B233" stroke-width="1.5"/>
<path d="M17.5 20.4375H21.25C21.2952 20.4375 21.3424 20.4557 21.3809 20.4941C21.4193 20.5326 21.4375 20.5798 21.4375 20.625C21.4375 20.6702 21.4193 20.7174 21.3809 20.7559C21.3424 20.7943 21.2952 20.8125 21.25 20.8125H17.5C17.4548 20.8125 17.4076 20.7943 17.3691 20.7559C17.3307 20.7174 17.3125 20.6702 17.3125 20.625C17.3125 20.5798 17.3307 20.5326 17.3691 20.4941C17.4076 20.4557 17.4548 20.4375 17.5 20.4375Z" fill="#F9B233" stroke="#F9B233" stroke-width="1.5"/>
<path d="M8.75 14.8125H12.5C12.5452 14.8125 12.5924 14.8307 12.6309 14.8691C12.6693 14.9076 12.6875 14.9548 12.6875 15C12.6875 15.0452 12.6693 15.0924 12.6309 15.1309C12.5924 15.1693 12.5452 15.1875 12.5 15.1875H8.75C8.70478 15.1875 8.65761 15.1693 8.61914 15.1309C8.58067 15.0924 8.5625 15.0452 8.5625 15C8.5625 14.9548 8.58067 14.9076 8.61914 14.8691C8.65761 14.8307 8.70478 14.8125 8.75 14.8125Z" fill="#F9B233" stroke="#F9B233" stroke-width="1.5"/>
<path d="M17.5 14.8125H21.25C21.2952 14.8125 21.3424 14.8307 21.3809 14.8691C21.4193 14.9076 21.4375 14.9548 21.4375 15C21.4375 15.0452 21.4193 15.0924 21.3809 15.1309C21.3424 15.1693 21.2952 15.1875 21.25 15.1875H17.5C17.4548 15.1875 17.4076 15.1693 17.3691 15.1309C17.3307 15.0924 17.3125 15.0452 17.3125 15C17.3125 14.9548 17.3307 14.9076 17.3691 14.8691C17.4076 14.8307 17.4548 14.8125 17.5 14.8125Z" fill="#F9B233" stroke="#F9B233" stroke-width="1.5"/>
<path d="M8.75 9.1875H12.5C12.5452 9.1875 12.5924 9.20567 12.6309 9.24414C12.6693 9.28261 12.6875 9.32978 12.6875 9.375C12.6875 9.42022 12.6693 9.46739 12.6309 9.50586C12.5924 9.54433 12.5452 9.5625 12.5 9.5625H8.75C8.70478 9.5625 8.65761 9.54433 8.61914 9.50586C8.58067 9.46739 8.5625 9.42022 8.5625 9.375C8.5625 9.32978 8.58067 9.28261 8.61914 9.24414C8.65761 9.20567 8.70478 9.1875 8.75 9.1875Z" fill="#F9B233" stroke="#F9B233" stroke-width="1.5"/>
<path d="M21.25 10.3125H17.5C16.9875 10.3125 16.5625 9.8875 16.5625 9.375C16.5625 8.8625 16.9875 8.4375 17.5 8.4375H21.25C21.7625 8.4375 22.1875 8.8625 22.1875 9.375C22.1875 9.8875 21.7625 10.3125 21.25 10.3125Z" fill="#F9B233"/>
</svg>
