<svg width="20" height="20" viewBox="0 0 20 20" fill="none" xmlns="http://www.w3.org/2000/svg">
<path opacity="0.4" d="M6.66699 2.1665H13.333C15.3569 2.1665 17 3.80964 17 5.8335V14.1665C17 16.1904 15.3569 17.8335 13.333 17.8335H6.66699C4.64313 17.8335 3 16.1904 3 14.1665V5.8335C3 3.80964 4.64313 2.1665 6.66699 2.1665Z" fill="#979797" stroke="#979797"/>
<path d="M7.5 5.2583H12.5C13.0904 5.2583 13.5672 5.7343 13.5674 6.32471V7.15869C13.5672 7.74731 13.0838 8.2251 12.5 8.2251H7.5C6.91145 8.22496 6.43381 7.74235 6.43359 7.15869V6.32471C6.43374 5.73612 6.91628 5.25844 7.5 5.2583Z" fill="#979797" stroke="#979797"/>
<path d="M6.85254 11.272L6.86426 11.2749L6.87695 11.2769C6.88039 11.2774 6.88553 11.2782 6.89062 11.2798C6.89269 11.2804 6.89463 11.2814 6.89551 11.2817L6.89355 11.2808L6.92578 11.2964L6.95605 11.3062L6.98828 11.3325L7.01367 11.3452C7.01463 11.3461 7.01557 11.3471 7.0166 11.3481C7.04648 11.3816 7.06576 11.4048 7.07812 11.4224L7.10059 11.4634L7.10547 11.4761C7.11612 11.5017 7.12597 11.5416 7.12598 11.6001C7.12598 11.6974 7.09139 11.7773 7.03027 11.8384C6.96736 11.9012 6.88702 11.9331 6.80078 11.9331C6.7575 11.9331 6.71411 11.925 6.66797 11.9058C6.61991 11.8857 6.58532 11.8612 6.5625 11.8384C6.49228 11.7682 6.45898 11.6847 6.45898 11.6001C6.45899 11.5839 6.46135 11.5652 6.46582 11.5444L6.4873 11.4761L6.49219 11.4634C6.50473 11.4308 6.52008 11.4042 6.5625 11.3618C6.63919 11.2852 6.75977 11.2517 6.85254 11.272Z" fill="#979797" stroke="#979797"/>
<path d="M10.1243 12.4331C9.90768 12.4331 9.69935 12.3498 9.54102 12.1914C9.38268 12.0331 9.29102 11.8248 9.29102 11.5998C9.29102 11.3831 9.38268 11.1664 9.54102 11.0081C9.84935 10.6998 10.4077 10.6998 10.716 11.0081C10.791 11.0914 10.8577 11.1748 10.8993 11.2831C10.941 11.3831 10.9577 11.4914 10.9577 11.5998C10.9577 11.8248 10.8743 12.0331 10.716 12.1914C10.5577 12.3498 10.3493 12.4331 10.1243 12.4331Z" fill="#979797"/>
<path d="M13.4583 12.4331C13.2417 12.4331 13.0333 12.3498 12.875 12.1914C12.7167 12.0331 12.625 11.8248 12.625 11.5998C12.625 11.3831 12.7167 11.1664 12.875 11.0081C13.1833 10.6998 13.7417 10.6998 14.05 11.0081C14.2083 11.1664 14.3 11.3831 14.3 11.5998C14.3 11.7081 14.275 11.8164 14.2333 11.9164C14.1917 12.0164 14.1333 12.1081 14.05 12.1914C13.8917 12.3498 13.6833 12.4331 13.4583 12.4331Z" fill="#979797"/>
<path d="M6.80065 15.7665C6.57565 15.7665 6.36732 15.6832 6.20898 15.5248C6.05065 15.3665 5.95898 15.1582 5.95898 14.9332C5.95898 14.7165 6.05065 14.4998 6.20898 14.3415C6.28398 14.2665 6.37565 14.2082 6.47565 14.1665C6.68398 14.0832 6.90898 14.0832 7.11732 14.1665C7.16732 14.1832 7.21732 14.2082 7.25898 14.2415C7.30898 14.2665 7.35065 14.3082 7.38398 14.3415C7.54232 14.4998 7.63398 14.7165 7.63398 14.9332C7.63398 15.1582 7.54232 15.3665 7.38398 15.5248C7.22565 15.6832 7.01732 15.7665 6.80065 15.7665Z" fill="#979797"/>
<path d="M10.1243 15.7665C9.90768 15.7665 9.69935 15.6832 9.54102 15.5249C9.38268 15.3665 9.29102 15.1582 9.29102 14.9332C9.29102 14.8749 9.29935 14.8249 9.30768 14.7665C9.32435 14.7165 9.34102 14.6665 9.35768 14.6165C9.38268 14.5665 9.40768 14.5165 9.43268 14.4665C9.46602 14.4249 9.49935 14.3832 9.54102 14.3415C9.61602 14.2665 9.70768 14.2082 9.80768 14.1665C10.116 14.0415 10.4827 14.1082 10.716 14.3415C10.8743 14.4999 10.9577 14.7165 10.9577 14.9332C10.9577 15.1582 10.8743 15.3665 10.716 15.5249C10.641 15.5999 10.5493 15.6582 10.4493 15.6999C10.3493 15.7415 10.241 15.7665 10.1243 15.7665Z" fill="#979797"/>
<path d="M13.4578 15.7665C13.3495 15.7665 13.2411 15.7415 13.1411 15.6999C13.0411 15.6582 12.9495 15.5999 12.8745 15.5249C12.7161 15.3665 12.6328 15.1582 12.6328 14.9332C12.6328 14.7165 12.7161 14.4999 12.8745 14.3415C13.0995 14.1082 13.4745 14.0415 13.7828 14.1665C13.8828 14.2082 13.9745 14.2665 14.0495 14.3415C14.2078 14.4999 14.2911 14.7165 14.2911 14.9332C14.2911 15.1582 14.2078 15.3665 14.0495 15.5249C13.8911 15.6832 13.6828 15.7665 13.4578 15.7665Z" fill="#979797"/>
</svg>
