<svg width="20" height="20" viewBox="0 0 20 20" fill="none" xmlns="http://www.w3.org/2000/svg">
    <path
        d="M12.9237 2.35938H7.0737C4.9987 2.35938 4.54036 3.39271 4.2737 4.65938L3.33203 9.16771H16.6654L15.7237 4.65938C15.457 3.39271 14.9987 2.35938 12.9237 2.35938Z"
        stroke="currentColor" stroke-linecap="round" stroke-linejoin="round" />
    <path
        d="M18.3253 16.518C18.4169 17.493 17.6336 18.3346 16.6336 18.3346H15.0669C14.1669 18.3346 14.0419 17.9513 13.8836 17.4763L13.7169 16.9763C13.4836 16.293 13.3336 15.8346 12.1336 15.8346H7.86693C6.66693 15.8346 6.49194 16.3513 6.2836 16.9763L6.11694 17.4763C5.9586 17.9513 5.8336 18.3346 4.9336 18.3346H3.36694C2.36694 18.3346 1.5836 17.493 1.67527 16.518L2.14194 11.443C2.2586 10.193 2.50027 9.16797 4.6836 9.16797H15.3169C17.5003 9.16797 17.7419 10.193 17.8586 11.443L18.3253 16.518Z"
        stroke="currentColor" stroke-linecap="round" stroke-linejoin="round" />
    <path d="M3.33333 6.66797H2.5" stroke="currentColor" stroke-linecap="round"
        stroke-linejoin="round" />
    <path d="M17.5013 6.66797H16.668" stroke="currentColor" stroke-linecap="round"
        stroke-linejoin="round" />
    <path d="M10 2.5V4.16667" stroke="currentColor" stroke-linecap="round" stroke-linejoin="round" />
    <path d="M8.75 4.16797H11.25" stroke="currentColor" stroke-linecap="round"
        stroke-linejoin="round" />
    <path d="M5 12.5H7.5" stroke="currentColor" stroke-linecap="round" stroke-linejoin="round" />
    <path d="M12.5 12.5H15" stroke="currentColor" stroke-linecap="round" stroke-linejoin="round" />
</svg>