<svg width="16" height="16" viewBox="0 0 16 16" fill="none" xmlns="http://www.w3.org/2000/svg">
<mask id="path-1-inside-1_359_21226" fill="white">
<path d="M14.1673 14.6665H1.83398C1.56065 14.6665 1.33398 14.4398 1.33398 14.1665C1.33398 13.8932 1.56065 13.6665 1.83398 13.6665H14.1673C14.4407 13.6665 14.6673 13.8932 14.6673 14.1665C14.6673 14.4398 14.4407 14.6665 14.1673 14.6665Z"/>
</mask>
<path d="M14.1673 14.6665H1.83398C1.56065 14.6665 1.33398 14.4398 1.33398 14.1665C1.33398 13.8932 1.56065 13.6665 1.83398 13.6665H14.1673C14.4407 13.6665 14.6673 13.8932 14.6673 14.1665C14.6673 14.4398 14.4407 14.6665 14.1673 14.6665Z" fill="#979797"/>
<path d="M14.1673 14.6665V13.6665H1.83398V14.6665V15.6665H14.1673V14.6665ZM1.83398 14.6665V13.6665C2.11294 13.6665 2.33398 13.8876 2.33398 14.1665H1.33398H0.333984C0.333984 14.9921 1.00837 15.6665 1.83398 15.6665V14.6665ZM1.33398 14.1665H2.33398C2.33398 14.4455 2.11294 14.6665 1.83398 14.6665V13.6665V12.6665C1.00837 12.6665 0.333984 13.3409 0.333984 14.1665H1.33398ZM1.83398 13.6665V14.6665H14.1673V13.6665V12.6665H1.83398V13.6665ZM14.1673 13.6665V14.6665C13.8884 14.6665 13.6673 14.4455 13.6673 14.1665H14.6673H15.6673C15.6673 13.3409 14.9929 12.6665 14.1673 12.6665V13.6665ZM14.6673 14.1665H13.6673C13.6673 13.8876 13.8884 13.6665 14.1673 13.6665V14.6665V15.6665C14.9929 15.6665 15.6673 14.9921 15.6673 14.1665H14.6673Z" fill="#979797" mask="url(#path-1-inside-1_359_21226)"/>
<path opacity="0.4" d="M13.3799 6.07324C14.1236 6.81703 14.1252 8.02699 13.373 8.7793L8.55273 13.5996C7.80043 14.3517 6.59047 14.3502 5.84668 13.6064L3.12695 10.8867L10.6602 3.35352L13.3799 6.07324Z" fill="#979797" stroke="#979797"/>
<path d="M10.6591 2.64677L2.4124 10.8868L1.80573 10.2801C0.865731 9.34011 0.865731 7.81344 1.8124 6.86677L6.6324 2.04677C7.57906 1.10011 9.10573 1.10011 10.0457 2.04011L10.6591 2.64677Z" fill="#979797"/>
<path d="M8.59419 11.7333L7.69419 12.6333C7.50753 12.8199 7.20753 12.8199 7.02086 12.6333C6.83419 12.4466 6.83419 12.1466 7.02086 11.9599L7.92086 11.0599C8.10753 10.8733 8.40753 10.8733 8.59419 11.0599C8.78086 11.2466 8.78086 11.5466 8.59419 11.7333Z" fill="#979797"/>
<path d="M11.5129 8.81333L9.71958 10.6067C9.53292 10.7933 9.23292 10.7933 9.04625 10.6067C8.85958 10.42 8.85958 10.12 9.04625 9.93333L10.8396 8.14C11.0263 7.95333 11.3263 7.95333 11.5129 8.14C11.6929 8.32667 11.6929 8.62667 11.5129 8.81333Z" fill="#979797"/>
</svg>
