<svg width="20" height="20" viewBox="0 0 20 20" fill="none" xmlns="http://www.w3.org/2000/svg">
<path opacity="0.4" d="M17.833 8V13.7168C17.8329 15.3474 16.5077 16.667 14.874 16.667H5.12402C3.49045 16.6668 2.16609 15.3472 2.16602 13.7168V8H17.833Z" fill="#979797" stroke="#979797"/>
<path d="M5.12402 3.3335H14.874C16.5078 3.3335 17.833 4.65307 17.833 6.28369V7.00049H2.16602V6.28369C2.16602 4.65318 3.49041 3.33367 5.12402 3.3335Z" fill="#979797" stroke="#979797"/>
<path d="M5 13.625H6.66699C6.69704 13.6251 6.72835 13.6375 6.75391 13.6631C6.77944 13.6887 6.79199 13.7199 6.79199 13.75C6.79199 13.7801 6.77944 13.8113 6.75391 13.8369C6.72835 13.8625 6.69704 13.8749 6.66699 13.875H5C4.96985 13.875 4.93873 13.8626 4.91309 13.8369C4.88744 13.8113 4.875 13.7801 4.875 13.75C4.875 13.7199 4.88744 13.6887 4.91309 13.6631C4.93873 13.6374 4.96985 13.625 5 13.625Z" fill="#979797" stroke="#979797"/>
<path d="M12.0833 14.375H8.75C8.40833 14.375 8.125 14.0917 8.125 13.75C8.125 13.4083 8.40833 13.125 8.75 13.125H12.0833C12.425 13.125 12.7083 13.4083 12.7083 13.75C12.7083 14.0917 12.425 14.375 12.0833 14.375Z" fill="#979797"/>
</svg>
