<svg width="30" height="30" viewBox="0 0 30 30" fill="currentColor"
    xmlns="http://www.w3.org/2000/svg">
    <path opacity="0.4"
        d="M15 27.5C21.9036 27.5 27.5 21.9036 27.5 15C27.5 8.09644 21.9036 2.5 15 2.5C8.09644 2.5 2.5 8.09644 2.5 15C2.5 21.9036 8.09644 27.5 15 27.5Z"
        fill="currentColor" />
    <path
        d="M19.6383 19.9117C19.4758 19.9117 19.3133 19.8742 19.1633 19.7742L15.2883 17.4617C14.3258 16.8867 13.6133 15.6242 13.6133 14.5117V9.38672C13.6133 8.87422 14.0383 8.44922 14.5508 8.44922C15.0633 8.44922 15.4883 8.87422 15.4883 9.38672V14.5117C15.4883 14.9617 15.8633 15.6242 16.2508 15.8492L20.1258 18.1617C20.5758 18.4242 20.7133 18.9992 20.4508 19.4492C20.2633 19.7492 19.9508 19.9117 19.6383 19.9117Z"
        fill="currentColor" />
</svg>