<svg width="30" height="30" viewBox="0 0 30 30" fill="currentColor"
    xmlns="http://www.w3.org/2000/svg">
    <path opacity="0.4"
        d="M27.1991 19.9L19.1991 5.5C18.1241 3.5625 16.6366 2.5 14.9991 2.5C13.3616 2.5 11.8741 3.5625 10.7991 5.5L2.79912 19.9C1.78662 21.7375 1.67412 23.5 2.48662 24.8875C3.29912 26.275 4.89912 27.0375 6.99912 27.0375H22.9991C25.0991 27.0375 26.6991 26.275 27.5116 24.8875C28.3241 23.5 28.2116 21.725 27.1991 19.9Z"
        fill="currentColor" />
    <path
        d="M15 18.4375C14.4875 18.4375 14.0625 18.0125 14.0625 17.5V11.25C14.0625 10.7375 14.4875 10.3125 15 10.3125C15.5125 10.3125 15.9375 10.7375 15.9375 11.25V17.5C15.9375 18.0125 15.5125 18.4375 15 18.4375Z"
        fill="currentColor" />
    <path
        d="M15 22.4992C14.925 22.4992 14.8375 22.4867 14.75 22.4742C14.675 22.4617 14.6 22.4367 14.525 22.3992C14.45 22.3742 14.375 22.3367 14.3 22.2867C14.2375 22.2367 14.175 22.1867 14.1125 22.1367C13.8875 21.8992 13.75 21.5742 13.75 21.2492C13.75 20.9242 13.8875 20.5992 14.1125 20.3617C14.175 20.3117 14.2375 20.2617 14.3 20.2117C14.375 20.1617 14.45 20.1242 14.525 20.0992C14.6 20.0617 14.675 20.0367 14.75 20.0242C14.9125 19.9867 15.0875 19.9867 15.2375 20.0242C15.325 20.0367 15.4 20.0617 15.475 20.0992C15.55 20.1242 15.625 20.1617 15.7 20.2117C15.7625 20.2617 15.825 20.3117 15.8875 20.3617C16.1125 20.5992 16.25 20.9242 16.25 21.2492C16.25 21.5742 16.1125 21.8992 15.8875 22.1367C15.825 22.1867 15.7625 22.2367 15.7 22.2867C15.625 22.3367 15.55 22.3742 15.475 22.3992C15.4 22.4367 15.325 22.4617 15.2375 22.4742C15.1625 22.4867 15.075 22.4992 15 22.4992Z"
        fill="currentColor" />
</svg>