<svg width="30" height="30" viewBox="0 0 30 30" fill="none" xmlns="http://www.w3.org/2000/svg">
<path opacity="0.4" d="M9.7627 3.25H20.2373C22.3633 3.25 23.9701 3.88091 25.043 4.95508C26.1156 6.02909 26.7431 7.63546 26.7373 9.76074V20.2373C26.7373 22.3632 26.1068 23.9704 25.0322 25.0449C23.9577 26.1194 22.3504 26.75 20.2246 26.75H9.7627C7.63686 26.75 6.03052 26.1188 4.95605 25.043C3.8815 23.967 3.25 22.3572 3.25 20.2246V9.7627C3.25 7.63685 3.88052 6.02964 4.95508 4.95508C6.02964 3.88052 7.63685 3.25 9.7627 3.25Z" fill="#2FAC66" stroke="#2FAC66" stroke-width="1.5"/>
<path d="M15.1865 20.6504H16.749C18.0375 20.6504 18.9746 19.5243 18.9746 18.2871C18.9746 17.6717 18.8681 17.1406 18.5332 16.7285C18.2097 16.3306 17.7623 16.1662 17.4492 16.0557L17.4443 16.0537L16.1826 15.6162L15.1865 15.2715V20.6504ZM13.2617 9.3623C11.972 9.3623 11.0244 10.4636 11.0244 11.7129C11.0245 12.3284 11.1308 12.8594 11.4658 13.2715C11.7895 13.6696 12.2368 13.8338 12.5498 13.9443L13.8242 14.3945L14.8242 14.7471V9.3623H13.2617ZM14.8115 15.1309L14.3105 14.9551L12.4219 14.292C11.9752 14.1334 11.544 13.9203 11.2197 13.5576C10.9107 13.2119 10.6368 12.6606 10.6367 11.7002C10.6367 10.1786 11.8363 8.97472 13.249 8.97461H14.8115V7.5C14.8115 7.45482 14.8298 7.40759 14.8682 7.36914C14.9066 7.33073 14.9539 7.31255 14.999 7.3125C15.0442 7.3125 15.0914 7.33074 15.1299 7.36914C15.1683 7.40761 15.1865 7.45478 15.1865 7.5V8.97461H16.3867C17.9969 8.97461 19.3496 10.3383 19.3496 12.0752C19.3496 12.1204 19.3304 12.1676 19.292 12.2061C19.2537 12.2441 19.2071 12.2626 19.1621 12.2627C19.117 12.2627 19.0697 12.2443 19.0312 12.2061C18.9928 12.1676 18.9747 12.1204 18.9746 12.0752C18.9746 10.6256 17.8637 9.34961 16.3867 9.34961H15.1865V14.8691L15.6885 15.0449L17.5762 15.708L17.5791 15.709C18.0163 15.8603 18.4451 16.0698 18.7695 16.4326C19.0792 16.779 19.3559 17.3352 19.3613 18.3037C19.3594 19.8236 18.1607 21.0254 16.749 21.0254H15.1865V22.5C15.1865 22.5452 15.1683 22.5924 15.1299 22.6309C15.0914 22.6693 15.0442 22.6875 14.999 22.6875C14.9539 22.6874 14.9066 22.6693 14.8682 22.6309C14.8298 22.5924 14.8115 22.5452 14.8115 22.5V21.0127H13.6113C12.0013 21.0125 10.6494 19.6488 10.6494 17.9121C10.6495 17.8671 10.6678 17.8205 10.7061 17.7822C10.7445 17.7438 10.7917 17.7246 10.8369 17.7246C10.8821 17.7247 10.9294 17.7438 10.9678 17.7822C11.0059 17.8205 11.0243 17.8672 11.0244 17.9121C11.0244 19.3616 12.1346 20.6375 13.6113 20.6377H14.8115V15.1309Z" fill="#2FAC66" stroke="#2FAC66" stroke-width="1.5"/>
</svg>
