<svg width="24" height="24" viewBox="0 0 24 24" fill="none" xmlns="http://www.w3.org/2000/svg">
    <path opacity="0.4"
        d="M15.48 3H7.52C4.07 3 2 5.06 2 8.52V16.47C2 19.94 4.07 22 7.52 22H15.47C18.93 22 20.99 19.94 20.99 16.48V8.52C21 5.06 18.93 3 15.48 3Z"
        fill="#FCB333" />
    <path
        d="M21.02 2.98003C19.23 1.18003 17.48 1.14003 15.64 2.98003L14.51 4.10003C14.41 4.20003 14.38 4.34003 14.42 4.47003C15.12 6.92003 17.08 8.88003 19.53 9.58003C19.56 9.59003 19.61 9.59003 19.64 9.59003C19.74 9.59003 19.84 9.55003 19.91 9.48003L21.02 8.36003C21.93 7.45003 22.38 6.58003 22.38 5.69003C22.38 4.79003 21.93 3.90003 21.02 2.98003Z"
        fill="#FCB333" />
    <path
        d="M17.86 10.42C17.59 10.29 17.33 10.16 17.09 10.01C16.89 9.88997 16.69 9.75997 16.5 9.61997C16.34 9.51997 16.16 9.36997 15.98 9.21997C15.96 9.20997 15.9 9.15997 15.82 9.07997C15.51 8.82997 15.18 8.48997 14.87 8.11997C14.85 8.09997 14.79 8.03997 14.74 7.94997C14.64 7.83997 14.49 7.64997 14.36 7.43997C14.25 7.29997 14.12 7.09997 14 6.88997C13.85 6.63997 13.72 6.38997 13.6 6.12997C13.47 5.84997 13.37 5.58997 13.28 5.33997L7.89998 10.72C7.54998 11.07 7.20998 11.73 7.13998 12.22L6.70998 15.2C6.61998 15.83 6.78998 16.42 7.17998 16.81C7.50998 17.14 7.95998 17.31 8.45998 17.31C8.56998 17.31 8.67998 17.3 8.78998 17.29L11.76 16.87C12.25 16.8 12.91 16.47 13.26 16.11L18.64 10.73C18.39 10.65 18.14 10.54 17.86 10.42Z"
        fill="#FCB333" />
</svg>