<svg width="40" height="40" viewBox="0 0 40 40" fill="none" xmlns="http://www.w3.org/2000/svg">
<path opacity="0.4" d="M26.9833 3.33337H13.0166C6.94998 3.33337 3.33331 6.95004 3.33331 13.0167V26.9667C3.33331 33.05 6.94998 36.6667 13.0166 36.6667H26.9666C33.0333 36.6667 36.65 33.05 36.65 26.9834V13.0167C36.6666 6.95004 33.05 3.33337 26.9833 3.33337Z" fill="#FF0000"/>
<path d="M17.7333 15.8334C17.4167 15.8334 17.1 15.7167 16.85 15.4667C15.6667 14.2834 13.7333 14.2834 12.55 15.4667C12.0667 15.95 11.2667 15.95 10.7833 15.4667C10.3 14.9834 10.3 14.1834 10.7833 13.7C12.9333 11.55 16.45 11.55 18.6167 13.7C19.1 14.1834 19.1 14.9834 18.6167 15.4667C18.3667 15.7167 18.05 15.8334 17.7333 15.8334Z" fill="#FF0000"/>
<path d="M22.2666 15.8334C21.95 15.8334 21.6333 15.7167 21.3833 15.4667C20.9 14.9834 20.9 14.1834 21.3833 13.7C23.5333 11.55 27.05 11.55 29.2166 13.7C29.7 14.1834 29.7 14.9834 29.2166 15.4667C28.7333 15.95 27.9333 15.95 27.45 15.4667C26.2666 14.2834 24.3333 14.2834 23.15 15.4667C22.9166 15.7167 22.6 15.8334 22.2666 15.8334Z" fill="#FF0000"/>
<path d="M20 19.8667C15.5166 19.8667 11.8666 23.5167 11.8666 28C11.8666 29.1667 12.8166 30.1334 13.9833 30.1334H25.9833C27.15 30.1334 28.1 29.1834 28.1 28C28.1333 23.5167 24.4833 19.8667 20 19.8667Z" fill="#FF0000"/>
</svg>
