<svg width="40" height="40" viewBox="0 0 40 40" fill="none" xmlns="http://www.w3.org/2000/svg">
<g opacity="0.75">
<path opacity="0.4" d="M26.9833 3.33325H13.0166C6.94998 3.33325 3.33331 6.94992 3.33331 13.0166V26.9666C3.33331 33.0499 6.94998 36.6666 13.0166 36.6666H26.9666C33.0333 36.6666 36.65 33.0499 36.65 26.9833V13.0166C36.6666 6.94992 33.05 3.33325 26.9833 3.33325Z" fill="#2FAC66"/>
<path d="M25.8333 16.8834C27.5638 16.8834 28.9667 15.4805 28.9667 13.75C28.9667 12.0195 27.5638 10.6167 25.8333 10.6167C24.1029 10.6167 22.7 12.0195 22.7 13.75C22.7 15.4805 24.1029 16.8834 25.8333 16.8834Z" fill="#2FAC66"/>
<path d="M14.1667 16.8834C15.8972 16.8834 17.3 15.4805 17.3 13.75C17.3 12.0195 15.8972 10.6167 14.1667 10.6167C12.4362 10.6167 11.0333 12.0195 11.0333 13.75C11.0333 15.4805 12.4362 16.8834 14.1667 16.8834Z" fill="#2FAC66"/>
<path d="M26 21.5334H14C12.8334 21.5334 11.8834 22.4834 11.8834 23.6668C11.8834 28.1501 15.5334 31.8001 20.0167 31.8001C24.5 31.8001 28.15 28.1501 28.15 23.6668C28.1334 22.5001 27.1667 21.5334 26 21.5334Z" fill="#2FAC66"/>
</g>
</svg>
