<svg width="30" height="30" viewBox="0 0 30 30" fill="none" xmlns="http://www.w3.org/2000/svg">
<path opacity="0.4" d="M15 3.05566C21.5967 3.05566 26.9443 8.40327 26.9443 15C26.9443 21.5967 21.5967 26.9443 15 26.9443C8.40327 26.9443 3.05566 21.5967 3.05566 15C3.05566 8.40327 8.40327 3.05566 15 3.05566Z" fill="#888888" stroke="#888888" stroke-width="1.11111"/>
<path d="M21.2501 19.9625C19.6126 19.9625 18.0501 19.2125 16.8001 17.825C18.0376 16.2375 18.8376 14.275 19.0126 12.125H21.2375C21.7501 12.125 22.175 11.7 22.175 11.1875C22.175 10.675 21.7501 10.25 21.2375 10.25H18.2001C18.1751 10.25 18.1501 10.2375 18.1251 10.2375C18.1001 10.2375 18.0751 10.25 18.0501 10.25H15.9376V9.08749C15.9376 8.57499 15.5126 8.14999 15.0001 8.14999C14.4876 8.14999 14.0626 8.57499 14.0626 9.08749V10.25H8.76257C8.25007 10.25 7.82507 10.675 7.82507 11.1875C7.82507 11.7 8.25007 12.125 8.76257 12.125H15.0001H17.1251C16.6626 16.525 13.0875 19.9625 8.73755 19.9625C8.22505 19.9625 7.80005 20.3875 7.80005 20.9C7.80005 21.4125 8.22505 21.8375 8.73755 21.8375C11.325 21.8375 13.6876 20.8375 15.5001 19.2C17.0876 20.9 19.1 21.8375 21.2375 21.8375C21.7501 21.8375 22.175 21.4125 22.175 20.9C22.175 20.3875 21.7626 19.9625 21.2501 19.9625Z" fill="#888888"/>
</svg>
