<svg width="172" height="317" viewBox="0 0 172 317" fill="none" xmlns="http://www.w3.org/2000/svg">
<g opacity="0.2">
<path d="M0.635742 -71.8711V-70.5999C93.9592 -70.5999 169.883 5.32424 169.883 98.6477V316.236H171.155V98.6477C171.155 4.62366 94.6598 -71.8711 0.635742 -71.8711Z" fill="#FCB333"/>
<path d="M0.758789 -72V-70.7288C71.0565 -70.7288 129.09 -4.3024 147.999 58.1949C151.69 71.7373 154.008 85.6842 154.889 99.6166L155.019 101.747C155.2 104.687 155.388 107.728 155.633 110.718C156.269 118.403 157.15 137.651 158.27 162.02C159.685 192.868 161.448 231.271 163.441 261.931C166.966 316.122 169.27 316.122 170.649 316.122V314.851C170.707 314.851 170.75 314.872 170.758 314.88C166.424 311.99 162.112 218.075 159.541 161.962C158.421 137.579 157.54 118.323 156.905 110.617C156.659 107.641 156.471 104.607 156.291 101.675L156.161 99.5444C155.279 85.5253 152.947 71.499 149.227 57.8554C130.181 -5.09689 71.6777 -71.9856 0.766008 -71.9856L0.758789 -72Z" fill="#FCB333"/>
<path d="M0.636125 -71.8711V-70.5999C51.2594 -70.5999 94.9202 -17.947 118.899 31.3257C130.123 54.3947 137.057 79.2044 139.505 105.076L139.556 105.574C140.17 112.176 140.769 117.658 141.448 122.836C142.568 131.424 144.085 147.249 145.832 165.58C153.416 244.978 161.014 316.251 170.527 316.251V314.979C168.353 314.979 163.781 308.19 157.598 262.709C153.51 232.606 149.949 195.373 147.096 165.457C145.341 147.119 143.832 131.279 142.705 122.67C142.033 117.506 141.434 112.038 140.82 105.459L140.769 104.953C138.299 78.9299 131.329 53.9758 120.033 30.7695C95.888 -18.8498 51.8445 -71.8711 0.628906 -71.8711H0.636125Z" fill="#FCB333"/>
<path d="M0.635742 -71.8684V-70.5972C43.7042 -70.5972 83.9125 -10.7939 107.191 45.1741C115.331 64.7547 120.871 85.4547 123.637 106.704L123.875 108.545C125.255 119.596 126.562 128.668 127.978 137.089C129.299 144.926 130.881 155.601 132.716 167.951C143.867 242.98 155.965 316.239 170.519 316.239V314.968C155.843 314.968 142.148 222.822 133.972 167.764C132.138 155.406 130.549 144.731 129.227 136.872C127.812 128.465 126.512 119.408 125.132 108.379L124.894 106.53C122.113 85.173 116.552 64.3574 108.361 44.6758C101.124 27.2837 85.7254 -5.91865 63.877 -32.8012C42.8014 -58.7304 21.5236 -71.8828 0.635742 -71.8828V-71.8684Z" fill="#FCB333"/>
<path d="M0.635742 -71.8711V-70.5999C43.7475 -70.5999 80.5251 18.6211 94.3348 56.9804C100.756 74.8203 105.378 93.3752 108.065 112.132L108.137 112.623C110.073 126.188 112.464 139.809 115.244 153.113C116.227 157.801 117.295 163.052 118.451 168.729C129.704 223.902 148.533 316.251 170.519 316.251V314.979C149.573 314.979 130.137 219.677 119.701 168.476C118.545 162.799 117.469 157.541 116.494 152.853C113.72 139.578 111.33 125.985 109.401 112.443L109.329 111.952C106.628 93.1152 101.984 74.4736 95.5337 56.5543C87.1988 33.413 73.6781 0.152855 56.5605 -26.867C37.6444 -56.7253 18.8295 -71.8711 0.642961 -71.8711H0.635742Z" fill="#FCB333"/>
<path d="M0.635742 -71.8711V-70.5999C39.3995 -70.5999 73.2664 41.9068 84.3964 78.8794C87.3071 88.5505 89.5606 98.5177 91.0918 108.507C94.7609 132.421 99.7156 156.393 105.819 179.765C122.416 243.31 144.763 316.251 170.519 316.251V314.979C142.445 314.979 116.725 216.514 107.047 179.447C100.951 156.118 96.0104 132.182 92.3485 108.319C90.8101 98.2721 88.5422 88.2471 85.6098 78.5182C74.4148 41.3218 40.3385 -71.8639 0.635742 -71.8639V-71.8711Z" fill="#FCB333"/>
<path d="M0.636125 -71.8711V-70.5999C28.6888 -70.5999 54.358 27.6277 64.0218 64.6075C67.4092 77.5721 72.6384 103.696 77.2537 126.744C80.9733 145.313 84.1802 161.347 85.473 165.645C96.6753 202.892 130.78 316.243 170.512 316.243V314.972C131.727 314.972 97.8237 202.307 86.6864 165.276C85.408 161.037 82.2084 145.024 78.4959 126.491C73.8735 103.429 68.6443 77.2832 65.2424 64.2825C48.6738 0.889565 26.3631 -71.8711 0.628906 -71.8711H0.636125Z" fill="#FCB333"/>
<path d="M0.635742 -71.8711V-70.5999C21.5741 -70.5999 41.0102 24.6881 51.4541 75.8892C53.3753 85.3148 55.0365 93.4546 56.4521 99.8683C58.1783 107.676 60.6629 123.855 60.6846 123.992C63.8409 148.52 69.9007 172.81 78.705 196.189C95.5843 241.034 129.964 316.258 170.526 316.258V314.987C130.722 314.987 96.6604 240.276 79.8895 195.741C71.1285 172.456 65.0904 148.26 61.9413 123.826C61.9269 123.71 59.4134 107.402 57.6944 99.5939C56.2788 93.1946 54.6176 85.062 52.6964 75.6364C41.4435 20.4701 22.6142 -71.8639 0.635742 -71.8639V-71.8711Z" fill="#FCB333"/>
<path d="M0.635742 -71.8697V-70.5985C19.364 -70.5985 41.9636 98.9018 45.3365 130.089L45.3943 130.587C48.1822 156.011 54.5598 180.503 64.3537 203.377C75.686 229.855 116.826 316.238 170.526 316.238V314.966C117.606 314.966 76.7766 229.169 65.5237 202.879C55.7804 180.12 49.439 155.744 46.6582 130.443L46.6005 129.952C46.3838 127.93 22.9464 -71.877 0.635742 -71.877V-71.8697Z" fill="#FCB333"/>
<path d="M0.636125 -71.8697V-70.5985C2.81013 -70.5985 7.38205 -63.8093 13.5574 -18.3357C17.6454 11.7609 21.2061 48.9935 24.0591 78.9024C24.9186 87.9234 25.713 96.2078 26.4281 103.337C27.302 112.011 31.1589 146.744 31.9028 151.598C35.3191 173.966 42.1156 195.504 52.0973 215.605C76.2497 264.256 120.048 316.245 170.512 316.245V314.974C120.625 314.974 77.2175 263.346 53.2312 215.034C43.3073 195.049 36.547 173.634 33.1524 151.396C32.4156 146.557 28.5588 111.866 27.6848 103.199C26.9698 96.0706 26.1753 87.7862 25.3158 78.7724C17.7321 -0.618607 10.1411 -71.877 0.628906 -71.877L0.636125 -71.8697Z" fill="#FCB333"/>
<path d="M0.636125 -71.8697V-70.5985C4.86136 -67.7312 9.17326 26.1701 11.7445 82.2681C12.9001 107.396 13.8102 127.251 14.4458 134.379C14.6841 137.03 14.8502 139.392 14.9586 141.587C15.6736 156.647 18.0643 171.713 22.0584 186.382C41.0972 249.342 99.6004 316.245 170.527 316.245V314.974C100.214 314.974 42.1878 248.54 23.279 186.028C19.3138 171.467 16.9376 156.488 16.2225 141.53C16.1142 139.312 15.9481 136.936 15.7097 134.264C15.0741 127.157 14.1641 107.323 13.0085 82.2031C11.5928 51.3553 9.83052 12.9671 7.83708 -17.6929C4.31244 -71.8769 2.00843 -71.877 0.628906 -71.877L0.636125 -71.8697Z" fill="#FCB333"/>
<path d="M1.27119 -71.7969H0V145.727C0 239.751 76.4948 316.245 170.519 316.245V314.974C77.1953 314.974 1.27119 239.05 1.27119 145.727V-71.7969Z" fill="#FCB333"/>
</g>
</svg>
