<svg width="16" height="16" viewBox="0 0 16 16" fill="none" xmlns="http://www.w3.org/2000/svg">
<path opacity="0.4" d="M4.07422 2.84668H9.93359C10.6146 2.84668 11.1474 2.99194 11.5293 3.25586C11.8537 3.48013 12.1051 3.81418 12.2441 4.30371L12.2969 4.52344C12.3392 4.76767 12.3672 5.00818 12.3672 5.28027V8.71289C12.3672 9.64426 12.104 10.2281 11.7207 10.584C11.3307 10.9461 10.7369 11.1465 9.93359 11.1465H4.07422C3.80293 11.1465 3.55351 11.1225 3.33008 11.0723L3.31543 11.0684L3.2998 11.0664L3.1084 11.0244C3.04564 11.0072 2.98291 10.9873 2.9209 10.9648H2.92188C2.51506 10.8129 2.2065 10.5697 1.99414 10.2256C1.77842 9.87588 1.64062 9.38621 1.64062 8.71289V5.28027C1.64062 4.34925 1.90404 3.76611 2.28711 3.41016C2.67712 3.04801 3.27086 2.84668 4.07422 2.84668Z" fill="#979797" stroke="#979797"/>
<path d="M13.3643 5.16309C13.5813 5.28403 13.762 5.43728 13.9062 5.62402C14.1832 5.98269 14.3672 6.51255 14.3672 7.28027V10.7139C14.3671 11.645 14.1039 12.2281 13.7207 12.584C13.3307 12.9461 12.7369 13.1465 11.9336 13.1465H6.07422C5.62363 13.1465 5.24021 13.0854 4.9248 12.9658L4.9209 12.9648L4.69727 12.8672C4.38122 12.7074 4.12788 12.4726 3.94824 12.1426C3.99011 12.1436 4.03219 12.1465 4.07422 12.1465H9.93359C10.8902 12.1465 11.7647 11.9076 12.4014 11.3164C13.0445 10.7191 13.3671 9.83546 13.3672 8.71387V5.28027C13.3672 5.2409 13.365 5.20174 13.3643 5.16309Z" fill="#979797" stroke="#979797"/>
<path d="M7.00024 8.76025C7.97227 8.76025 8.76025 7.97227 8.76025 7.00024C8.76025 6.02822 7.97227 5.24023 7.00024 5.24023C6.02822 5.24023 5.24023 6.02822 5.24023 7.00024C5.24023 7.97227 6.02822 8.76025 7.00024 8.76025Z" fill="#979797"/>
<path d="M3.1875 5.5C2.91417 5.5 2.6875 5.72667 2.6875 6V8C2.6875 8.27333 2.91417 8.5 3.1875 8.5C3.46083 8.5 3.6875 8.27333 3.6875 8V6C3.6875 5.72667 3.4675 5.5 3.1875 5.5Z" fill="#979797"/>
<path d="M10.8066 5.5C10.5333 5.5 10.3066 5.72667 10.3066 6V8C10.3066 8.27333 10.5333 8.5 10.8066 8.5C11.08 8.5 11.3066 8.27333 11.3066 8V6C11.3066 5.72667 11.0866 5.5 10.8066 5.5Z" fill="#979797"/>
</svg>
