<svg width="24" height="24" viewBox="0 0 24 24" fill="none" xmlns="http://www.w3.org/2000/svg">
<path d="M9.00007 19C9.00007 19.84 9.13007 20.66 9.37007 21.42C5.53007 20.09 2.63007 16.56 2.33007 12.43C2.03007 8.04001 4.56007 3.94001 8.65007 2.22001C9.71007 1.78001 10.2501 2.10001 10.4801 2.33001C10.7001 2.55001 11.0101 3.08001 10.5701 4.09001C10.1201 5.13001 9.90007 6.23001 9.90007 7.37001C9.91007 9.41001 10.7101 11.3 12.0101 12.75C10.1801 14.21 9.00007 16.47 9.00007 19Z" fill="#888888"/>
<path opacity="0.4" d="M21.21 17.72C19.23 20.41 16.09 21.99 12.74 21.99C12.58 21.99 12.42 21.98 12.26 21.97C11.26 21.93 10.29 21.74 9.37 21.42C9.13 20.66 9 19.84 9 19C9 16.47 10.18 14.21 12.01 12.75C13.48 14.4 15.59 15.47 17.92 15.57C18.55 15.6 19.18 15.55 19.8 15.44C20.92 15.24 21.37 15.66 21.53 15.93C21.7 16.2 21.88 16.79 21.21 17.72Z" fill="#888888"/>
</svg>
