<svg width="16" height="38" viewBox="0 0 16 38" fill="none" xmlns="http://www.w3.org/2000/svg">
<path d="M6.65024 9.75192C6.83716 9.73025 7.04206 9.70497 7.09958 9.69775C7.15709 9.69413 7.39435 9.6833 7.62081 9.67969C7.84728 9.67969 8.20316 9.69413 8.41165 9.71219C8.62015 9.73386 8.98681 9.79165 9.22766 9.83861C9.4721 9.88917 9.86752 9.99391 10.1084 10.077C10.3528 10.1564 10.7302 10.3081 10.9459 10.4129C11.1616 10.5176 11.4959 10.6982 11.6829 10.8102C11.8698 10.9258 12.1861 11.1461 12.3802 11.2978C12.5779 11.4495 12.8943 11.7276 13.0848 11.9154C13.2753 12.1032 13.5341 12.3885 13.6564 12.5475C13.7822 12.7064 13.9799 12.9737 14.0913 13.1434C14.2028 13.3132 14.3717 13.5877 14.4616 13.7574C14.5514 13.9272 14.6809 14.1944 14.7491 14.3534C14.8174 14.5123 14.9145 14.7723 14.9684 14.9313C15.0223 15.0902 15.105 15.3755 15.1518 15.5633C15.1985 15.7511 15.2668 16.0943 15.3027 16.3218C15.3638 16.7119 15.3674 17.1561 15.3674 23.5635C15.3674 30.0178 15.3638 30.4114 15.3027 30.8051C15.2632 31.0327 15.1877 31.4011 15.1338 31.6178C15.0763 31.8345 14.9828 32.1523 14.9181 32.3221C14.857 32.4918 14.706 32.8422 14.5802 33.0986C14.4544 33.3551 14.2351 33.7379 14.0985 33.9474C13.9583 34.1569 13.7175 34.482 13.5629 34.6698C13.4047 34.8576 13.1459 35.1321 12.9913 35.2802C12.8368 35.4282 12.6031 35.6305 12.4737 35.7352C12.3443 35.84 12.0783 36.0314 11.8806 36.1614C11.6829 36.2915 11.3593 36.4793 11.1616 36.5804C10.9639 36.6852 10.6332 36.8332 10.4247 36.9127C10.2162 36.9922 9.83876 37.115 9.57994 37.18C9.32471 37.245 8.91491 37.3244 8.67047 37.3569C8.42963 37.3895 7.99466 37.4147 7.70349 37.4147C7.40872 37.4147 7.02768 37.3967 6.84795 37.3786C6.66821 37.3569 6.3375 37.3028 6.11103 37.2558C5.88456 37.2089 5.49633 37.1041 5.2483 37.021C5.00026 36.938 4.58687 36.7646 4.33164 36.6382C4.07642 36.5118 3.69538 36.2987 3.48688 36.1614C3.27839 36.0242 2.96565 35.7894 2.78591 35.6413C2.60617 35.4896 2.30781 35.2079 2.12089 35.0093C1.93396 34.8106 1.68233 34.5217 1.5637 34.3628C1.44508 34.2038 1.25096 33.9185 1.13593 33.7307C1.01731 33.5429 0.84476 33.225 0.751297 33.0264C0.65424 32.8277 0.521235 32.5027 0.44934 32.304C0.377446 32.1054 0.280388 31.7875 0.233657 31.5997C0.186926 31.4119 0.118626 31.0941 0.0826786 30.8954C0.0251631 30.5668 0.0179736 30.2634 0.0179736 24.7192L0.100652 24.4664C0.147384 24.3256 0.244441 24.1088 0.312741 23.9788C0.38823 23.8416 0.557182 23.6321 0.71535 23.4732C0.90587 23.2817 1.07482 23.1553 1.27613 23.0506C1.43429 22.9675 1.66076 22.8736 1.77939 22.8375C1.9771 22.7797 2.28265 22.7725 5.21235 22.7508C8.311 22.7291 8.44041 22.7255 8.73518 22.6533C8.90413 22.6099 9.16295 22.5305 9.31033 22.4799C9.45772 22.4257 9.70935 22.3138 9.86752 22.2343C10.0257 22.1549 10.2989 21.9923 10.475 21.8695C10.6548 21.7503 10.928 21.5192 11.0897 21.3603C11.2515 21.2013 11.4708 20.9485 11.5822 20.8004C11.69 20.6523 11.8482 20.4176 11.9273 20.2767C12.0064 20.1359 12.1286 19.8866 12.2005 19.7169C12.2688 19.5471 12.3694 19.2293 12.427 19.0126C12.524 18.637 12.5276 18.5756 12.524 17.8388C12.524 17.12 12.5168 17.0369 12.4306 16.7191C12.3802 16.5313 12.2868 16.2459 12.2257 16.087C12.1645 15.9281 12.0315 15.65 11.9309 15.473C11.8302 15.2924 11.6433 15.0179 11.5211 14.859C11.3989 14.7001 11.1616 14.4437 10.9963 14.2847C10.8309 14.1294 10.5505 13.9055 10.3708 13.7863C10.191 13.6671 9.91784 13.5082 9.75967 13.4324C9.60151 13.3565 9.31033 13.2445 9.11262 13.1831C8.91491 13.1217 8.57341 13.0459 8.35773 13.0134C8.06656 12.97 7.8365 12.9592 7.47702 12.9737C7.16069 12.9881 6.85873 13.0278 6.61429 13.0856C6.4058 13.1326 6.1326 13.212 6.00319 13.2626C5.87378 13.3096 5.64731 13.4107 5.49993 13.4865C5.35254 13.5624 5.12608 13.6924 4.99667 13.7791C4.86726 13.8622 4.64079 14.0355 4.4934 14.1619C4.34602 14.2884 4.12315 14.5123 3.99733 14.6604C3.87152 14.8084 3.69538 15.0432 3.60551 15.1841C3.51204 15.3249 3.36826 15.5814 3.28558 15.762C3.1993 15.9389 3.09146 16.2171 3.03754 16.376C2.98722 16.5349 2.92251 16.7949 2.89375 16.9539C2.86499 17.1128 2.82545 17.4559 2.80748 17.7123C2.78591 17.9941 2.73918 18.283 2.69245 18.4347C2.65291 18.5756 2.55225 18.8176 2.46957 18.9765C2.35454 19.2004 2.24311 19.3449 1.9771 19.6085C1.71468 19.8758 1.57089 19.9878 1.34802 20.1034C1.18985 20.1864 0.949007 20.2876 0.808813 20.3273C0.668619 20.3706 0.431367 20.4176 0 20.4573V18.7128C0 17.7412 0.0179736 16.8166 0.039542 16.618C0.0575156 16.4265 0.115031 16.0726 0.161763 15.8342C0.208494 15.5958 0.323525 15.1805 0.413393 14.9132C0.506856 14.6459 0.679403 14.2306 0.794434 13.9922C0.91306 13.7538 1.12874 13.3782 1.27253 13.1615C1.41632 12.9411 1.65357 12.6161 1.80455 12.4391C1.95193 12.2585 2.20357 11.9912 2.35814 11.8432C2.51631 11.6951 2.75356 11.482 2.89375 11.37C3.03395 11.258 3.29996 11.0666 3.48688 10.9402C3.67381 10.8174 4.01531 10.6224 4.24177 10.5068C4.46824 10.3912 4.81693 10.2395 5.01464 10.1637C5.21235 10.0878 5.5862 9.97586 5.84143 9.91084C6.09665 9.84583 6.46331 9.77359 6.65024 9.75192Z" fill="#F9B233"/>
<path d="M10.6049 0.198649C10.7127 0.162531 10.9392 0.104742 11.1082 0.0686243C11.2771 0.0325062 11.5323 0.0036118 11.9349 0V2.89667C11.9349 5.35992 11.9278 5.84751 11.881 6.12201C11.8487 6.29899 11.7983 6.53736 11.766 6.64572C11.7372 6.75407 11.651 6.98162 11.5791 7.15137C11.5072 7.32113 11.3526 7.60646 11.234 7.78344C11.1154 7.96042 10.9069 8.22769 10.7667 8.37577C10.6301 8.52024 10.3856 8.73695 10.2275 8.85614C10.0693 8.97894 9.7853 9.15231 9.59838 9.24622C9.41145 9.34013 9.15263 9.45209 9.02322 9.49182C8.89381 9.53516 8.67094 9.59295 8.53074 9.62546C8.38696 9.65435 8.13173 9.67963 7.65723 9.67963L7.66801 6.71073C7.67879 3.85741 7.68239 3.72377 7.75428 3.41315C7.79742 3.23256 7.8801 2.95084 7.94121 2.78109C8.00232 2.61133 8.12454 2.34406 8.21441 2.18514C8.30428 2.02622 8.47323 1.77701 8.58467 1.62892C8.6961 1.48084 8.901 1.25691 9.04119 1.12688C9.18139 1.00047 9.42224 0.809044 9.5804 0.704302C9.73857 0.595948 9.9902 0.455087 10.1376 0.386463C10.285 0.317839 10.4971 0.234767 10.6049 0.198649Z" fill="#2FAC66"/>
<path opacity="0.3" d="M12.7797 29.1026C12.8408 29.0593 12.9271 29.0123 12.9774 28.9979C13.0277 28.9834 13.1248 28.969 13.1931 28.969C13.2614 28.9654 13.3908 29.0015 13.4771 29.0448C13.567 29.0918 13.6892 29.1893 13.8581 29.406L13.8545 29.9911C13.8509 30.4462 13.833 30.6557 13.7719 30.9519C13.7287 31.1614 13.6353 31.5009 13.567 31.7104C13.4987 31.9198 13.3692 32.2341 13.283 32.4147C13.1967 32.5953 13.0062 32.9203 12.866 33.137C12.6719 33.4296 12.4849 33.6571 12.1363 34.0039C11.8523 34.2892 11.5359 34.5637 11.3418 34.6973C11.1621 34.8165 10.8565 34.9971 10.6588 35.0982C10.4611 35.1957 10.1771 35.3222 10.0297 35.3763C9.88236 35.4269 9.59838 35.5136 9.40067 35.5605C9.18139 35.6147 8.88662 35.6581 8.64578 35.6689C8.27912 35.687 8.23957 35.6833 8.11016 35.6039C8.03108 35.5569 7.91964 35.4594 7.85853 35.38C7.77226 35.2716 7.7435 35.1994 7.73272 35.0368C7.72193 34.8779 7.73631 34.7985 7.80461 34.654C7.86572 34.5276 7.93762 34.4481 8.05265 34.3759C8.15689 34.3109 8.28271 34.2675 8.41212 34.2567C8.51996 34.2458 8.72127 34.2206 8.86146 34.1989C9.00165 34.1772 9.25688 34.1122 9.43662 34.0508C9.61635 33.993 9.90393 33.8702 10.0837 33.7763C10.2634 33.6824 10.5294 33.5163 10.6768 33.4043C10.8242 33.2923 11.0614 33.0792 11.2016 32.9348C11.3418 32.7867 11.5287 32.57 11.615 32.4508C11.7013 32.3316 11.8559 32.0715 11.9601 31.8729C12.0608 31.6742 12.1866 31.3889 12.2369 31.2408C12.2872 31.0927 12.3519 30.8471 12.3843 30.6991C12.4166 30.551 12.4526 30.2151 12.4706 29.9586C12.4921 29.5613 12.5101 29.4674 12.5856 29.3338C12.6323 29.2507 12.7186 29.146 12.7797 29.1026Z" fill="white"/>
</svg>
