<svg width="30" height="30" viewBox="0 0 30 30" fill="none" xmlns="http://www.w3.org/2000/svg">
<path opacity="0.4" d="M21.9133 9.71251C21.8258 9.70001 21.7383 9.70001 21.6508 9.71251C19.7133 9.65001 18.1758 8.0625 18.1758 6.1125C18.1758 4.125 19.7883 2.5 21.7883 2.5C23.7758 2.5 25.4008 4.1125 25.4008 6.1125C25.3883 8.0625 23.8508 9.65001 21.9133 9.71251Z" fill="#005EFF"/>
<path opacity="0.4" d="M25.9875 18.3735C24.5875 19.311 22.625 19.661 20.8125 19.4235C21.2875 18.3985 21.5375 17.2611 21.55 16.0611C21.55 14.8111 21.275 13.6236 20.75 12.5861C22.6 12.3361 24.5625 12.686 25.975 13.6235C27.95 14.9235 27.95 17.061 25.9875 18.3735Z" fill="#005EFF"/>
<path opacity="0.4" d="M8.05 9.71251C8.1375 9.70001 8.225 9.70001 8.3125 9.71251C10.25 9.65001 11.7875 8.0625 11.7875 6.1125C11.7875 4.125 10.175 2.5 8.175 2.5C6.1875 2.5 4.5625 4.1125 4.5625 6.1125C4.575 8.0625 6.1125 9.65001 8.05 9.71251Z" fill="#005EFF"/>
<path opacity="0.4" d="M8.18789 16.0613C8.18789 17.2738 8.45039 18.4238 8.92539 19.4613C7.16289 19.6488 5.32539 19.2738 3.97539 18.3863C2.00039 17.0738 2.00039 14.9363 3.97539 13.6238C5.31289 12.7238 7.20039 12.3613 8.97539 12.5613C8.46289 13.6113 8.18789 14.7988 8.18789 16.0613Z" fill="#005EFF"/>
<path d="M15.15 19.8375C15.05 19.825 14.9375 19.825 14.825 19.8375C12.525 19.7625 10.6875 17.875 10.6875 15.55C10.6875 13.175 12.6 11.25 14.9875 11.25C17.3625 11.25 19.2875 13.175 19.2875 15.55C19.2875 17.875 17.4625 19.7625 15.15 19.8375Z" fill="#005EFF"/>
<path d="M11.0875 22.4258C9.2 23.6883 9.2 25.7633 11.0875 27.0133C13.2375 28.4508 16.7625 28.4508 18.9125 27.0133C20.8 25.7508 20.8 23.6758 18.9125 22.4258C16.775 20.9883 13.25 20.9883 11.0875 22.4258Z" fill="#005EFF"/>
</svg>
