<svg width="20" height="20" viewBox="0 0 20 20" fill="none" xmlns="http://www.w3.org/2000/svg">
<path opacity="0.4" d="M9.99902 2.16797C11.8465 2.16797 13.3602 3.6235 13.4531 5.44824L13.458 5.62598C13.4499 7.49976 11.9861 9.01068 10.123 9.07617H10.083C10.0237 9.07159 9.96452 9.07121 9.9082 9.0752C7.99477 9.00522 6.54102 7.49196 6.54102 5.62598C6.54119 3.71904 8.09209 2.16815 9.99902 2.16797Z" fill="#F9B233" stroke="#F9B233"/>
<path d="M10.0098 11.1289C11.4646 11.1289 12.8917 11.4983 13.9551 12.207C14.842 12.7983 15.3001 13.5477 15.3594 14.3164L15.3662 14.4707C15.3646 15.2948 14.9019 16.103 13.9531 16.7432C12.8857 17.4596 11.455 17.833 9.99902 17.833C8.54296 17.8329 7.11235 17.4598 6.04492 16.7432L6.04395 16.7422L5.87109 16.6211C5.03875 16.008 4.63293 15.2489 4.63281 14.4834C4.63281 13.666 5.09454 12.8468 6.05176 12.2061C7.12402 11.497 8.55578 11.1289 10.0098 11.1289Z" fill="#F9B233" stroke="#F9B233"/>
</svg>
