<svg width="28" height="28" viewBox="0 0 28 28" fill="none" xmlns="http://www.w3.org/2000/svg">
<path opacity="0.4" d="M12.845 23.3567C18.6505 23.3567 23.3567 18.6504 23.3567 12.845C23.3567 7.03957 18.6505 2.33333 12.845 2.33333C7.03961 2.33333 2.33337 7.03957 2.33337 12.845C2.33337 18.6504 7.03961 23.3567 12.845 23.3567Z" fill="black"/>
<path d="M25.655 22.1083C25.27 21.3967 24.4534 21 23.3567 21C22.5284 21 21.8167 21.3383 21.3967 21.9217C20.9767 22.505 20.8834 23.2867 21.14 24.0683C21.6417 25.585 22.5167 25.9233 22.995 25.9817C23.065 25.9933 23.135 25.9933 23.2167 25.9933C23.73 25.9933 24.5234 25.7717 25.2934 24.6167C25.9117 23.7183 26.0284 22.82 25.655 22.1083Z" fill="black"/>
</svg>
