<svg width="24" height="24" viewBox="0 0 24 24" fill="none" xmlns="http://www.w3.org/2000/svg">
<path opacity="0.4" d="M12 19C15.866 19 19 15.866 19 12C19 8.13401 15.866 5 12 5C8.13401 5 5 8.13401 5 12C5 15.866 8.13401 19 12 19Z" fill="black"/>
<path d="M12 22.96C11.45 22.96 11 22.55 11 22V21.92C11 21.37 11.45 20.92 12 20.92C12.55 20.92 13 21.37 13 21.92C13 22.47 12.55 22.96 12 22.96ZM19.14 20.14C18.88 20.14 18.63 20.04 18.43 19.85L18.3 19.72C17.91 19.33 17.91 18.7 18.3 18.31C18.69 17.92 19.32 17.92 19.71 18.31L19.84 18.44C20.23 18.83 20.23 19.46 19.84 19.85C19.65 20.04 19.4 20.14 19.14 20.14ZM4.86 20.14C4.6 20.14 4.35 20.04 4.15 19.85C3.76 19.46 3.76 18.83 4.15 18.44L4.28 18.31C4.67 17.92 5.3 17.92 5.69 18.31C6.08 18.7 6.08 19.33 5.69 19.72L5.56 19.85C5.37 20.04 5.11 20.14 4.86 20.14ZM22 13H21.92C21.37 13 20.92 12.55 20.92 12C20.92 11.45 21.37 11 21.92 11C22.47 11 22.96 11.45 22.96 12C22.96 12.55 22.55 13 22 13ZM2.08 13H2C1.45 13 1 12.55 1 12C1 11.45 1.45 11 2 11C2.55 11 3.04 11.45 3.04 12C3.04 12.55 2.63 13 2.08 13ZM19.01 5.98999C18.75 5.98999 18.5 5.88999 18.3 5.69999C17.91 5.30999 17.91 4.67999 18.3 4.28999L18.43 4.15999C18.82 3.76999 19.45 3.76999 19.84 4.15999C20.23 4.54999 20.23 5.17999 19.84 5.56999L19.71 5.69999C19.52 5.88999 19.27 5.98999 19.01 5.98999ZM4.99 5.98999C4.73 5.98999 4.48 5.88999 4.28 5.69999L4.15 5.55999C3.76 5.16999 3.76 4.53999 4.15 4.14999C4.54 3.75999 5.17 3.75999 5.56 4.14999L5.69 4.27999C6.08 4.66999 6.08 5.29999 5.69 5.68999C5.5 5.88999 5.24 5.98999 4.99 5.98999ZM12 3.03999C11.45 3.03999 11 2.62999 11 2.07999V1.99999C11 1.44999 11.45 0.999992 12 0.999992C12.55 0.999992 13 1.44999 13 1.99999C13 2.54999 12.55 3.03999 12 3.03999Z" fill="black"/>
</svg>
